<?xml version="1.0" encoding="utf-8"?>
<!-- Generator: Adobe Illustrator 23.0.3, SVG Export Plug-In . SVG Version: 6.00 Build 0)  -->
<svg version="1.1" id="Layer_1" xmlns="http://www.w3.org/2000/svg" xmlns:xlink="http://www.w3.org/1999/xlink" x="0px" y="0px"
	 viewBox="0 0 188.3 65" style="enable-background:new 0 0 188.3 65;" xml:space="preserve">
<style type="text/css">
	.st0{fill:#404040;}
	.st1{fill:#ED1C24;}
</style>
<title>adobe-logo</title>
<path class="st0" d="M80.1,28.7l-0.7,2.1h-0.9l2.3-6.7h1.1l2.3,6.7h-0.9l-0.7-2.1H80.1z M82.3,28l-0.7-1.9c-0.2-0.4-0.3-0.8-0.3-1.2
	l0,0c-0.1,0.4-0.2,0.8-0.3,1.2l-0.7,2H82.3z"/>
<path class="st0" d="M85.2,24.1c0.6-0.1,1.2-0.1,1.8-0.1c1-0.1,2,0.2,2.7,0.8c0.7,0.6,1,1.5,0.9,2.4c0,1-0.3,1.9-1,2.6
	c-0.8,0.7-1.9,1.1-3,1c-0.5,0-1.1,0-1.6-0.1L85.2,24.1z M86.1,30.1c0.3,0,0.6,0.1,0.9,0c1.4,0.2,2.7-0.9,2.9-2.3c0-0.2,0-0.4,0-0.6
	c0.1-1.3-0.8-2.5-2.2-2.6c-0.2,0-0.4,0-0.6,0c-0.3,0-0.7,0-1,0.1L86.1,30.1z"/>
<path class="st0" d="M97.7,27.4c0,2.3-1.4,3.5-3.1,3.5s-3-1.4-3-3.4s1.3-3.5,3.1-3.5S97.7,25.4,97.7,27.4z M92.5,27.5
	c0,1.4,0.8,2.7,2.2,2.7s2.2-1.3,2.2-2.8c0-1.3-0.7-2.7-2.2-2.7S92.5,26,92.5,27.5z"/>
<path class="st0" d="M98.9,24.1c0.5-0.1,1.1-0.1,1.6-0.1c0.7-0.1,1.3,0.1,1.8,0.5c0.4,0.3,0.6,0.7,0.6,1.2c0,0.7-0.5,1.3-1.1,1.5
	l0,0c0.8,0.2,1.4,0.9,1.4,1.7c0,0.5-0.2,1-0.6,1.4c-0.7,0.5-1.5,0.7-2.3,0.6c-0.5,0-0.9,0-1.3-0.1L98.9,24.1z M99.8,26.9h0.8
	c0.9,0,1.5-0.5,1.5-1.1s-0.6-1.1-1.5-1.1c-0.3,0-0.5,0-0.8,0.1V26.9z M99.8,30.1c0.2,0,0.5,0,0.7,0c0.9,0,1.7-0.3,1.7-1.3
	s-0.8-1.3-1.7-1.3h-0.7V30.1z"/>
<path class="st0" d="M107.9,27.6h-2.6v2.4h2.9v0.7h-3.8v-6.7h3.6v0.7h-2.8v2.1h2.6V27.6z"/>
<path class="st0" d="M116.4,30.6c-0.6,0.2-1.2,0.3-1.8,0.3c-1.7,0.1-3.2-1.2-3.3-3c0-0.2,0-0.3,0-0.5c-0.1-1.8,1.4-3.4,3.2-3.5
	c0.1,0,0.2,0,0.3,0c0.5,0,1.1,0.1,1.6,0.3l-0.2,0.7c-0.4-0.2-0.9-0.3-1.4-0.3c-1.4-0.1-2.6,1-2.6,2.4c0,0.1,0,0.3,0,0.4
	c-0.1,1.3,0.8,2.6,2.2,2.7c0.1,0,0.3,0,0.4,0c0.5,0,1-0.1,1.4-0.3L116.4,30.6z"/>
<path class="st0" d="M121.1,27.6h-2.6v2.4h2.9v0.7h-3.8v-6.7h3.6v0.7h-2.8v2.1h2.6V27.6z"/>
<path class="st0" d="M122.6,24.1c0.6-0.1,1.1-0.1,1.7-0.1c0.7-0.1,1.4,0.1,2,0.5c0.4,0.3,0.5,0.8,0.5,1.3c0,0.8-0.5,1.5-1.3,1.7l0,0
	c0.6,0.2,0.9,0.8,1,1.4c0.1,0.6,0.3,1.3,0.5,1.9h-0.9c-0.2-0.5-0.4-1.1-0.4-1.6c-0.2-0.9-0.6-1.3-1.3-1.3h-0.8v2.9h-0.9V24.1z
	 M123.5,27.2h0.9c0.9,0,1.5-0.5,1.5-1.3s-0.6-1.3-1.6-1.3c-0.3,0-0.6,0-0.9,0.1L123.5,27.2z"/>
<path class="st0" d="M129.5,24.8h-2.1v-0.7h5v0.7h-2.1v6h-0.9L129.5,24.8z"/>
<path class="st0" d="M134.1,24.1v6.7h-0.9v-6.7H134.1z"/>
<path class="st0" d="M135.7,24.1h3.6v0.7h-2.8V27h2.6v0.7h-2.6v3.1h-0.9L135.7,24.1z"/>
<path class="st0" d="M141.6,24.1v6.7h-0.9v-6.7H141.6z"/>
<path class="st0" d="M146.7,27.6h-2.6v2.4h2.9v0.7h-3.8v-6.7h3.6v0.7h-2.8v2.1h2.6L146.7,27.6z"/>
<path class="st0" d="M148.2,24.1c0.6-0.1,1.2-0.1,1.9-0.1c1-0.1,2,0.2,2.7,0.8c0.7,0.6,1,1.5,0.9,2.4c0,1-0.3,1.9-1,2.6
	c-0.8,0.7-1.9,1.1-3,1c-0.5,0-1.1,0-1.6-0.1L148.2,24.1z M149.1,30.1c0.3,0,0.6,0.1,0.9,0c1.4,0.2,2.7-0.9,2.9-2.3
	c0-0.2,0-0.4,0-0.6c0.1-1.3-0.8-2.5-2.2-2.6c-0.2,0-0.4,0-0.6,0c-0.3,0-0.7,0-1,0.1L149.1,30.1z"/>
<path class="st0" d="M160.7,27.6h-2.6v2.4h2.9v0.7h-3.8v-6.7h3.6v0.7h-2.8v2.1h2.6L160.7,27.6z"/>
<path class="st0" d="M165.9,30.8l-0.9-1.5c-0.4-0.6-0.6-0.9-0.8-1.3l0,0c-0.2,0.4-0.4,0.8-0.7,1.3l-0.8,1.5h-1l2.1-3.4l-2-3.3h1
	l0.9,1.6c0.3,0.4,0.4,0.8,0.6,1.1l0,0c0.2-0.4,0.4-0.7,0.6-1.1l0.9-1.6h1l-2.1,3.3l2.1,3.5H165.9z"/>
<path class="st0" d="M168,24.1c0.6-0.1,1.1-0.1,1.7-0.1c0.7-0.1,1.3,0.1,1.9,0.6c0.4,0.4,0.6,0.9,0.6,1.4c0,0.5-0.2,1-0.5,1.4
	c-0.6,0.5-1.3,0.8-2.1,0.7c-0.2,0-0.5,0-0.7-0.1v2.7H168V24.1z M168.9,27.4c0.2,0.1,0.5,0.1,0.7,0.1c1,0,1.7-0.5,1.7-1.4
	s-0.6-1.3-1.6-1.3c-0.3,0-0.6,0-0.8,0.1V27.4z"/>
<path class="st0" d="M176.9,27.6h-2.6v2.4h2.9v0.7h-3.8v-6.7h3.6v0.7h-2.8v2.1h2.6V27.6z"/>
<path class="st0" d="M178.5,24.1c0.6-0.1,1.1-0.1,1.7-0.1c0.7-0.1,1.4,0.1,2,0.5c0.4,0.3,0.5,0.8,0.5,1.3c0,0.8-0.5,1.5-1.3,1.7l0,0
	c0.6,0.2,0.9,0.8,1,1.4c0.1,0.6,0.3,1.3,0.5,1.9H182c-0.2-0.5-0.4-1.1-0.4-1.6c-0.2-0.9-0.6-1.3-1.4-1.3h-0.8v2.9h-0.9L178.5,24.1z
	 M179.3,27.2h0.9c0.9,0,1.5-0.5,1.5-1.3s-0.6-1.3-1.6-1.3c-0.3,0-0.6,0-0.9,0.1V27.2z"/>
<path class="st0" d="M185.3,24.8h-2v-0.7h5v0.7h-2.1v6h-0.9L185.3,24.8z"/>
<path class="st1" d="M81.3,37.7v5.6c0,2.1,0.9,3,2.2,3s2.3-0.9,2.3-3v-5.6H87v5.5c0,2.9-1.5,4.1-3.6,4.1s-3.4-1.1-3.4-4v-5.6H81.3z"
	/>
<path class="st1" d="M90.4,37.7v9.5h-1.2v-9.5H90.4z"/>
<path class="st1" d="M91.4,47.7l3.9-10.2h0.9l-3.9,10.2H91.4z"/>
<path class="st1" d="M98.6,37.7v5.6c0,2.1,0.9,3,2.2,3s2.3-0.9,2.3-3v-5.6h1.2v5.5c0,2.9-1.5,4.1-3.6,4.1s-3.4-1.1-3.4-4v-5.6H98.6z
	"/>
<path class="st1" d="M111.7,47.2l-1.2-2.1c-0.5-0.8-0.8-1.3-1.1-1.9l0,0c-0.3,0.5-0.5,1-1,1.9l-1.1,2.1h-1.4l2.9-4.8l-2.8-4.7h1.4
	l1.3,2.2c0.3,0.6,0.6,1.1,0.9,1.6l0,0c0.3-0.6,0.5-1.1,0.9-1.6l1.3-2.2h1.4l-2.9,4.6l3,4.9H111.7z"/>
<path class="st1" d="M117.5,37.8c0.9-0.1,1.7-0.2,2.6-0.2c1.4-0.1,2.8,0.3,3.9,1.2c0.9,0.9,1.4,2.1,1.3,3.4c0.1,1.4-0.4,2.7-1.4,3.7
	c-1.2,1-2.7,1.5-4.2,1.4c-0.7,0-1.5,0-2.2-0.1L117.5,37.8z M118.7,46.2c0.4,0.1,0.8,0.1,1.2,0.1c2.6,0,4-1.5,4-4
	c0-2.2-1.3-3.7-3.8-3.7c-0.5,0-1,0-1.4,0.1L118.7,46.2z"/>
<path class="st1" d="M131.8,42.7h-3.7v3.4h4.1v1h-5.3v-9.5h5.1v1h-3.9v3h3.7L131.8,42.7z"/>
<path class="st1" d="M136,47.2l-3.1-9.5h1.3l1.5,4.7c0.4,1.3,0.8,2.4,1,3.5l0,0c0.3-1.1,0.7-2.3,1.1-3.5l1.6-4.7h1.3l-3.4,9.5H136z"
	/>
<path class="st1" d="M146.7,42.7H143v3.4h4.1v1h-5.3v-9.5h5.1v1H143v3h3.7L146.7,42.7z"/>
<path class="st1" d="M148.7,37.7h1.3v8.5h4v1h-5.3L148.7,37.7z"/>
<path class="st1" d="M163,42.3c0,3.3-2,5-4.4,5s-4.3-1.9-4.3-4.8c0-3,1.9-5,4.4-5S163,39.5,163,42.3z M155.6,42.5c0,2,1.1,3.8,3,3.8
	s3-1.8,3-3.9c0-1.9-1-3.9-3-3.9S155.6,40.4,155.6,42.5L155.6,42.5z"/>
<path class="st1" d="M164.6,37.8c0.8-0.1,1.6-0.2,2.4-0.2c1-0.1,1.9,0.2,2.7,0.8c0.6,0.5,0.9,1.2,0.8,2c0,0.7-0.2,1.5-0.7,2
	c-0.8,0.7-1.8,1.1-2.9,1c-0.3,0-0.7,0-1-0.1v3.8h-1.2L164.6,37.8z M165.8,42.4c0.3,0.1,0.7,0.1,1,0.1c1.5,0,2.4-0.7,2.4-2
	s-0.9-1.9-2.2-1.9c-0.4,0-0.8,0-1.1,0.1L165.8,42.4z"/>
<path class="st1" d="M177,42.7h-3.7v3.4h4.1v1h-5.3v-9.5h5.1v1h-3.9v3h3.7V42.7z"/>
<path class="st1" d="M179,37.8c0.8-0.1,1.6-0.2,2.4-0.2c1-0.1,2,0.2,2.8,0.8c0.5,0.5,0.8,1.1,0.8,1.8c0,1.1-0.8,2.1-1.9,2.4l0,0
	c0.8,0.3,1.3,1.1,1.4,1.9c0.2,0.9,0.4,1.8,0.7,2.6h-1.2c-0.3-0.7-0.5-1.5-0.6-2.3c-0.3-1.3-0.8-1.8-1.9-1.8h-1.1v4.1H179V37.8z
	 M180.2,42.1h1.3c1.3,0,2.1-0.7,2.1-1.8s-0.9-1.8-2.2-1.8c-0.4,0-0.8,0-1.2,0.1V42.1z"/>
<g id="g4151">
	<polygon id="polygon15" class="st1" points="40.8,0.3 64.7,0.3 64.7,57.5 	"/>
	<polygon id="polygon17" class="st1" points="23.9,0.3 0,0.3 0,57.5 	"/>
	<polygon id="polygon19" class="st1" points="21.9,46 32.3,21.4 47.6,57.5 37.6,57.5 33,46 	"/>
</g>
</svg>
