<svg id="Layer_1" data-name="Layer 1" xmlns="http://www.w3.org/2000/svg" viewBox="0 0 206.8 67.5"><defs><style>.cls-1{fill:#404040;}.cls-2{fill:#5b4282;}</style></defs><title>bootstrap-logo</title><path class="cls-1" d="M91.75,23.65a9.68,9.68,0,0,1,1.71-.15,3,3,0,0,1,2,.53,1.54,1.54,0,0,1,.6,1.28,1.71,1.71,0,0,1-1.23,1.59v0a1.87,1.87,0,0,1,1.5,1.82,2,2,0,0,1-.61,1.45,3.68,3.68,0,0,1-2.51.68,9.89,9.89,0,0,1-1.46-.09Zm.94,3h.85c1,0,1.57-.51,1.57-1.21,0-.85-.64-1.19-1.59-1.19a3.44,3.44,0,0,0-.83.07Zm0,3.48a4.09,4.09,0,0,0,.79,0c1,0,1.86-.36,1.86-1.42s-.85-1.4-1.88-1.4h-.77Z"/><path class="cls-1" d="M103.9,27.11c0,2.5-1.51,3.82-3.37,3.82s-3.26-1.48-3.26-3.68,1.43-3.81,3.37-3.81S103.9,25,103.9,27.11Zm-5.63.12c0,1.55.84,2.94,2.32,2.94s2.32-1.37,2.32-3c0-1.44-.75-2.95-2.31-2.95S98.27,25.63,98.27,27.23Z"/><path class="cls-1" d="M111.44,27.11c0,2.5-1.52,3.82-3.38,3.82s-3.26-1.48-3.26-3.68,1.43-3.81,3.37-3.81S111.44,25,111.44,27.11Zm-5.64.12c0,1.55.84,2.94,2.32,2.94s2.32-1.37,2.32-3c0-1.44-.75-2.95-2.31-2.95S105.8,25.63,105.8,27.23Z"/><path class="cls-1" d="M113.87,24.35h-2.2v-.8H117v.8h-2.22v6.46h-.95Z"/><path class="cls-1" d="M117.77,29.67a3.3,3.3,0,0,0,1.68.48c1,0,1.51-.51,1.51-1.24s-.38-1.07-1.36-1.45c-1.19-.42-1.92-1-1.92-2.05a2.09,2.09,0,0,1,2.35-2,3.32,3.32,0,0,1,1.6.35l-.26.77a2.84,2.84,0,0,0-1.38-.35c-1,0-1.36.59-1.36,1.09,0,.68.44,1,1.44,1.4,1.23.47,1.85,1.07,1.85,2.13s-.83,2.09-2.54,2.09a3.73,3.73,0,0,1-1.85-.46Z"/><path class="cls-1" d="M124.69,24.35h-2.2v-.8h5.37v.8h-2.22v6.46h-1Z"/><path class="cls-1" d="M128.78,23.65a9.46,9.46,0,0,1,1.8-.15,3,3,0,0,1,2.1.59,1.84,1.84,0,0,1,.57,1.38,1.9,1.9,0,0,1-1.37,1.85v0A1.82,1.82,0,0,1,133,28.82a10.21,10.21,0,0,0,.56,2h-1a9.49,9.49,0,0,1-.49-1.73c-.21-1-.6-1.38-1.45-1.41h-.89v3.14h-.93Zm.93,3.31h1c1,0,1.64-.55,1.64-1.38s-.68-1.35-1.67-1.36a4.08,4.08,0,0,0-.93.09Z"/><path class="cls-1" d="M135.91,28.53l-.75,2.28h-1l2.46-7.26h1.13l2.48,7.26h-1l-.78-2.28Zm2.38-.73-.71-2.09c-.16-.47-.27-.91-.38-1.33h0q-.17.66-.36,1.32l-.72,2.1Z"/><path class="cls-1" d="M141.44,23.64a11.41,11.41,0,0,1,1.8-.14,3,3,0,0,1,2,.6,2,2,0,0,1,.64,1.52,2.14,2.14,0,0,1-.56,1.55,3,3,0,0,1-2.22.8,3.4,3.4,0,0,1-.75-.06v2.9h-.94Zm.94,3.5a2.8,2.8,0,0,0,.77.08c1.13,0,1.82-.55,1.82-1.55s-.68-1.43-1.71-1.43a4,4,0,0,0-.88.08Z"/><path class="cls-1" d="M152.27,30.81v-1.9H149v-.63l3.13-4.47h1v4.35h1v.75h-1v1.9Zm0-2.65V25.83c0-.37,0-.74,0-1.1h0c-.22.41-.39.71-.58,1L150,28.14v0Z"/><path class="cls-1" d="M162.77,30.58a4.66,4.66,0,0,1-1.91.34,3.39,3.39,0,0,1-3.59-3.67,3.61,3.61,0,0,1,3.79-3.81,3.86,3.86,0,0,1,1.72.32l-.22.76a3.47,3.47,0,0,0-1.47-.3,2.7,2.7,0,0,0-2.83,3,2.64,2.64,0,0,0,2.79,2.92,3.65,3.65,0,0,0,1.53-.31Z"/><path class="cls-1" d="M167.82,27.41H165V30h3.15v.78h-4.08V23.55H168v.79h-3v2.3h2.83Z"/><path class="cls-1" d="M169.47,23.65a9.43,9.43,0,0,1,1.79-.15,3,3,0,0,1,2.1.59,1.81,1.81,0,0,1,.58,1.38,1.9,1.9,0,0,1-1.37,1.85v0a1.79,1.79,0,0,1,1.06,1.46,12,12,0,0,0,.56,2h-1a8.7,8.7,0,0,1-.49-1.73c-.22-1-.6-1.38-1.45-1.41h-.89v3.14h-.93ZM170.4,27h1c1,0,1.64-.55,1.64-1.38s-.68-1.35-1.67-1.36a4,4,0,0,0-.93.09Z"/><path class="cls-1" d="M176.85,24.35h-2.21v-.8H180v.8h-2.22v6.46h-.94Z"/><path class="cls-1" d="M181.87,23.55v7.26h-.94V23.55Z"/><path class="cls-1" d="M183.61,23.55h3.91v.79h-3v2.41h2.75v.78h-2.75v3.28h-.94Z"/><path class="cls-1" d="M189.91,23.55v7.26H189V23.55Z"/><path class="cls-1" d="M195.41,27.41h-2.82V30h3.14v.78h-4.08V23.55h3.92v.79h-3v2.3h2.82Z"/><path class="cls-1" d="M197.06,23.65a14.31,14.31,0,0,1,2-.15,4.15,4.15,0,0,1,2.95.91,3.35,3.35,0,0,1,1,2.6A3.81,3.81,0,0,1,202,29.83a4.44,4.44,0,0,1-3.21,1.05,13.84,13.84,0,0,1-1.7-.09Zm.94,6.42a6.39,6.39,0,0,0,.95.05A2.79,2.79,0,0,0,202,27c0-1.71-1-2.8-2.94-2.8a5.56,5.56,0,0,0-1.1.1Z"/><path class="cls-2" d="M79.27,37.81a12.22,12.22,0,0,1,2.24-.19,3.94,3.94,0,0,1,2.61.69A2,2,0,0,1,84.9,40a2.25,2.25,0,0,1-1.6,2.09v0a2.44,2.44,0,0,1,2,2.38,2.58,2.58,0,0,1-.81,1.9,4.79,4.79,0,0,1-3.28.88,13.86,13.86,0,0,1-1.9-.11ZM80.5,41.7h1.11c1.29,0,2-.67,2-1.59,0-1.11-.84-1.55-2.08-1.55a5.46,5.46,0,0,0-1.08.08Zm0,4.55a6.69,6.69,0,0,0,1,.06c1.27,0,2.44-.47,2.44-1.85s-1.11-1.83-2.45-1.83h-1Z"/><path class="cls-2" d="M95,42.33c0,3.27-2,5-4.41,5s-4.27-1.94-4.27-4.81c0-3,1.88-5,4.41-5S95,39.52,95,42.33Zm-7.37.16c0,2,1.1,3.84,3,3.84s3-1.78,3-3.94c0-1.89-1-3.86-3-3.86S87.65,40.41,87.65,42.49Z"/><path class="cls-2" d="M104.73,42.33c0,3.27-2,5-4.41,5s-4.27-1.94-4.27-4.81c0-3,1.88-5,4.41-5S104.73,39.52,104.73,42.33Zm-7.37.16c0,2,1.1,3.84,3,3.84s3-1.78,3-3.94c0-1.89-1-3.86-3-3.86S97.36,40.41,97.36,42.49Z"/><path class="cls-2" d="M107.78,38.73h-2.89v-1h7v1H109v8.45h-1.23Z"/><path class="cls-2" d="M112.72,45.69a4.42,4.42,0,0,0,2.2.62c1.25,0,2-.67,2-1.62s-.51-1.4-1.79-1.89c-1.55-.55-2.51-1.35-2.51-2.69s1.22-2.58,3.07-2.58a4.3,4.3,0,0,1,2.1.47l-.34,1a3.75,3.75,0,0,0-1.8-.45c-1.3,0-1.79.77-1.79,1.42,0,.89.58,1.32,1.89,1.83,1.6.62,2.42,1.39,2.42,2.79s-1.09,2.73-3.33,2.73a4.9,4.9,0,0,1-2.42-.61Z"/><path class="cls-2" d="M121.64,38.73h-2.89v-1h7v1h-2.9v8.45h-1.24Z"/><path class="cls-2" d="M126.84,37.81a13.46,13.46,0,0,1,2.35-.19,3.92,3.92,0,0,1,2.75.77,2.36,2.36,0,0,1,.75,1.8,2.5,2.5,0,0,1-1.79,2.43v0a2.35,2.35,0,0,1,1.39,1.91,16,16,0,0,0,.73,2.61h-1.26a11.84,11.84,0,0,1-.64-2.27c-.28-1.31-.79-1.8-1.9-1.84h-1.15v4.11h-1.23Zm1.23,4.33h1.25c1.31,0,2.14-.72,2.14-1.81s-.89-1.76-2.18-1.77a5.4,5.4,0,0,0-1.21.11Z"/><path class="cls-2" d="M136,44.19l-1,3h-1.26L137,37.69h1.48l3.24,9.49h-1.31l-1-3Zm3.11-.95-.93-2.74c-.21-.62-.35-1.18-.49-1.73h0c-.14.56-.3,1.14-.48,1.72l-.93,2.75Z"/><path class="cls-2" d="M143.12,37.8a14,14,0,0,1,2.35-.18,3.88,3.88,0,0,1,2.66.79,2.55,2.55,0,0,1,.83,2,2.79,2.79,0,0,1-.73,2,3.94,3.94,0,0,1-2.9,1,4.27,4.27,0,0,1-1-.08v3.8h-1.22Zm1.22,4.58a4.18,4.18,0,0,0,1,.1c1.47,0,2.38-.72,2.38-2s-.89-1.86-2.24-1.86a4.92,4.92,0,0,0-1.16.1Z"/><path class="cls-2" d="M157.25,46.87a6.21,6.21,0,0,1-2.51.45,4.43,4.43,0,0,1-4.69-4.8,4.73,4.73,0,0,1,5-5,5,5,0,0,1,2.25.43l-.3,1a4.34,4.34,0,0,0-1.91-.4c-2.23,0-3.7,1.42-3.7,3.92,0,2.32,1.33,3.81,3.64,3.81a4.88,4.88,0,0,0,2-.39Z"/><path class="cls-2" d="M158.79,37.81a13.37,13.37,0,0,1,2.35-.19,3.89,3.89,0,0,1,2.74.77,2.36,2.36,0,0,1,.75,1.8,2.5,2.5,0,0,1-1.79,2.43v0a2.38,2.38,0,0,1,1.4,1.91,15,15,0,0,0,.73,2.61H163.7a12.12,12.12,0,0,1-.63-2.27c-.28-1.31-.79-1.8-1.9-1.84H160v4.11h-1.22ZM160,42.14h1.25c1.31,0,2.14-.72,2.14-1.81s-.88-1.76-2.18-1.77a5.48,5.48,0,0,0-1.21.11Z"/><path class="cls-2" d="M171.28,42.73h-3.69v3.42h4.11v1h-5.33V37.69h5.12v1h-3.9v3h3.69Z"/><path class="cls-2" d="M174.83,44.19l-1,3h-1.27l3.23-9.49h1.47l3.24,9.49h-1.31l-1-3Zm3.12-.95L177,40.5c-.21-.62-.35-1.18-.5-1.73h0c-.14.56-.3,1.14-.48,1.72l-.93,2.75Z"/><path class="cls-2" d="M182.64,38.73h-2.89v-1h7v1h-2.9v8.45h-1.24Z"/><path class="cls-2" d="M189.07,37.69v9.49h-1.23V37.69Z"/><path class="cls-2" d="M193.29,47.18l-3.09-9.49h1.32L193,42.36c.41,1.28.76,2.44,1,3.55h0c.27-1.1.66-2.29,1.08-3.53l1.61-4.69H198l-3.39,9.49Z"/><path class="cls-2" d="M204,42.73H200.3v3.42h4.11v1h-5.34V37.69h5.13v1h-3.9v3H204Z"/><path class="cls-2" d="M39.63,34.82a19.27,19.27,0,0,0-5.15-.31h-9V46.25h9.62A17.35,17.35,0,0,0,38.27,46,7.75,7.75,0,0,0,41,45a5,5,0,0,0,1.77-2,6.06,6.06,0,0,0,.7-3,5.47,5.47,0,0,0-1-3.29A5.11,5.11,0,0,0,39.63,34.82Zm-1.24-5.37a4.93,4.93,0,0,0,2.68-1.78,5.06,5.06,0,0,0,.9-3.08,5.65,5.65,0,0,0-.84-3.09,3.87,3.87,0,0,0-2.4-1.56c-1-.33-2.82-.23-5.35-.23H25.49V29.92H34A16.37,16.37,0,0,0,38.39,29.45ZM65.3,10.84a8.49,8.49,0,0,0-8.49-8.48H10A8.49,8.49,0,0,0,1.5,10.84V57.67A8.49,8.49,0,0,0,10,66.15H56.81a8.49,8.49,0,0,0,8.49-8.48ZM47.21,44.59a9,9,0,0,1-2.58,3.27,10.83,10.83,0,0,1-3.85,1.81,23.17,23.17,0,0,1-5.67.66H20.9V15.12h14a16.4,16.4,0,0,1,6.46,1,8.23,8.23,0,0,1,3.82,3.26A8.64,8.64,0,0,1,46.55,24a7.94,7.94,0,0,1-1.23,4.24,8.61,8.61,0,0,1-3.69,3.21,9.26,9.26,0,0,1,4.91,3.19A8.56,8.56,0,0,1,48.25,40,10.37,10.37,0,0,1,47.21,44.59Z"/></svg>