<svg id="Layer_1" data-name="Layer 1" xmlns="http://www.w3.org/2000/svg" viewBox="0 0 206.8 67.5"><defs><style>.cls-1{fill:#404040;}.cls-2{fill:#61dafb;}</style></defs><title>idf-logo</title><path class="cls-1" d="M79,30.8V24.06h1l2.16,3.41a19.08,19.08,0,0,1,1.21,2.19h0c-.08-.9-.1-1.72-.1-2.77V24.06H84V30.8h-.88L81,27.38a21.39,21.39,0,0,1-1.26-2.25h0c.05.85.07,1.66.07,2.78V30.8Z"/><path class="cls-1" d="M86.73,28.68,86,30.8h-.9l2.29-6.74h1l2.3,6.74h-.93l-.72-2.12ZM88.94,28l-.66-1.94c-.15-.44-.25-.84-.35-1.23h0c-.1.4-.21.81-.34,1.22L86.91,28Z"/><path class="cls-1" d="M91.86,30.8V24.06h1L95,27.47a19.08,19.08,0,0,1,1.21,2.19h0c-.08-.9-.1-1.72-.1-2.77V24.06h.82V30.8H96L93.9,27.38a21.39,21.39,0,0,1-1.26-2.25h0c0,.85.07,1.66.07,2.78V30.8Z"/><path class="cls-1" d="M104.3,27.36c0,2.32-1.41,3.55-3.13,3.55s-3-1.38-3-3.42S99.47,24,101.27,24,104.3,25.36,104.3,27.36Zm-5.23.11c0,1.44.78,2.73,2.15,2.73s2.16-1.27,2.16-2.8c0-1.34-.7-2.74-2.15-2.74S99.07,26,99.07,27.47Z"/><path class="cls-1" d="M105.53,24.15a12.46,12.46,0,0,1,1.85-.14,3.86,3.86,0,0,1,2.73.84,3.1,3.1,0,0,1,1,2.42,3.56,3.56,0,0,1-1,2.62,4.15,4.15,0,0,1-3,1,14,14,0,0,1-1.58-.08Zm.87,6a5.49,5.49,0,0,0,.88.05,2.59,2.59,0,0,0,2.87-2.86,2.4,2.4,0,0,0-2.73-2.6,4.94,4.94,0,0,0-1,.09Z"/><path class="cls-1" d="M115.78,27.64h-2.62v2.43h2.92v.73h-3.79V24.06h3.64v.73h-2.77v2.13h2.62Z"/><path class="cls-1" d="M122.44,30.5a6.28,6.28,0,0,1-2.07.37,3.17,3.17,0,0,1-3.46-3.4A3.38,3.38,0,0,1,120.56,24a4.17,4.17,0,0,1,1.68.31L122,25a3.49,3.49,0,0,0-1.49-.29,2.52,2.52,0,0,0-2.71,2.71,2.47,2.47,0,0,0,2.6,2.72,2.84,2.84,0,0,0,1.16-.18V28h-1.37v-.7h2.22Z"/><path class="cls-1" d="M123.87,24.15a9.06,9.06,0,0,1,1.67-.14,2.76,2.76,0,0,1,1.95.55,1.68,1.68,0,0,1,.53,1.28,1.77,1.77,0,0,1-1.27,1.72v0a1.68,1.68,0,0,1,1,1.36,10.73,10.73,0,0,0,.52,1.85h-.9a8.73,8.73,0,0,1-.45-1.61c-.2-.93-.56-1.28-1.35-1.31h-.82V30.8h-.87Zm.87,3.07h.89c.93,0,1.52-.51,1.52-1.28s-.63-1.25-1.55-1.26a3.58,3.58,0,0,0-.86.08Z"/><path class="cls-1" d="M132.84,27.64h-2.62v2.43h2.92v.73h-3.79V24.06H133v.73h-2.77v2.13h2.62Z"/><path class="cls-1" d="M137.86,27.64h-2.62v2.43h2.92v.73h-3.79V24.06H138v.73h-2.77v2.13h2.62Z"/><path class="cls-1" d="M141.61,24.14a10.08,10.08,0,0,1,1.67-.13,2.77,2.77,0,0,1,1.89.56,1.81,1.81,0,0,1,.59,1.41,2,2,0,0,1-.52,1.44,2.79,2.79,0,0,1-2.06.74,3,3,0,0,1-.7-.06v2.7h-.87Zm.87,3.25a2.92,2.92,0,0,0,.72.07c1.05,0,1.69-.51,1.69-1.44s-.63-1.32-1.59-1.32a3.65,3.65,0,0,0-.82.07Z"/><path class="cls-1" d="M147,24.15A9.06,9.06,0,0,1,148.7,24a2.76,2.76,0,0,1,2,.55,1.68,1.68,0,0,1,.53,1.28,1.77,1.77,0,0,1-1.27,1.72v0a1.68,1.68,0,0,1,1,1.36,10.73,10.73,0,0,0,.52,1.85h-.9a8.73,8.73,0,0,1-.45-1.61c-.2-.93-.56-1.28-1.35-1.31h-.82V30.8H147Zm.87,3.07h.89c.93,0,1.52-.51,1.52-1.28s-.63-1.25-1.55-1.26a3.58,3.58,0,0,0-.86.08Z"/><path class="cls-1" d="M158.3,27.36c0,2.32-1.41,3.55-3.13,3.55s-3-1.38-3-3.42S153.47,24,155.27,24,158.3,25.36,158.3,27.36Zm-5.23.11c0,1.44.78,2.73,2.15,2.73s2.16-1.27,2.16-2.8c0-1.34-.7-2.74-2.15-2.74S153.07,26,153.07,27.47Z"/><path class="cls-1" d="M164.66,30.5a6.28,6.28,0,0,1-2.07.37,3.17,3.17,0,0,1-3.46-3.4A3.38,3.38,0,0,1,162.78,24a4.17,4.17,0,0,1,1.68.31l-.21.71a3.49,3.49,0,0,0-1.49-.29,2.52,2.52,0,0,0-2.71,2.71,2.47,2.47,0,0,0,2.6,2.72,2.84,2.84,0,0,0,1.16-.18V28h-1.37v-.7h2.22Z"/><path class="cls-1" d="M166.09,24.15a9.06,9.06,0,0,1,1.67-.14,2.76,2.76,0,0,1,2,.55,1.68,1.68,0,0,1,.53,1.28A1.77,1.77,0,0,1,169,27.56v0A1.68,1.68,0,0,1,170,29a10.73,10.73,0,0,0,.52,1.85h-.9a8.73,8.73,0,0,1-.45-1.61c-.2-.93-.56-1.28-1.35-1.31H167V30.8h-.87Zm.87,3.07h.89c.93,0,1.52-.51,1.52-1.28s-.63-1.25-1.55-1.26a3.58,3.58,0,0,0-.86.08Z"/><path class="cls-1" d="M172.71,28.68,172,30.8h-.9l2.29-6.74h1l2.3,6.74h-.93l-.72-2.12Zm2.21-.68-.66-1.94c-.15-.44-.25-.84-.35-1.23h0c-.1.4-.21.81-.34,1.22L172.89,28Z"/><path class="cls-1" d="M183.48,27.84c0-.94-.11-2.07-.1-2.91h0c-.23.79-.51,1.63-.85,2.56l-1.19,3.27h-.66l-1.09-3.21c-.32-.95-.59-1.82-.78-2.62h0c0,.84-.07,2-.13,3l-.18,2.89h-.83l.47-6.74h1.11l1.15,3.26c.28.83.51,1.57.68,2.27h0c.17-.68.41-1.42.71-2.27l1.2-3.26h1.11l.42,6.74h-.85Z"/><path class="cls-2" d="M80,37.81a13.37,13.37,0,0,1,2.35-.19,3.93,3.93,0,0,1,2.75.77,2.38,2.38,0,0,1,.74,1.8,2.5,2.5,0,0,1-1.79,2.43v0a2.36,2.36,0,0,1,1.4,1.91,15,15,0,0,0,.73,2.61H85a13,13,0,0,1-.63-2.27c-.28-1.31-.79-1.8-1.9-1.84H81.26v4.11H80Zm1.22,4.33h1.26c1.31,0,2.14-.72,2.14-1.81s-.89-1.76-2.19-1.77a5.48,5.48,0,0,0-1.21.11Z"/><path class="cls-2" d="M92.53,42.73H88.84v3.42H93v1H87.62V37.69h5.12v1h-3.9v3h3.69Z"/><path class="cls-2" d="M96.09,44.19l-1,3H93.83l3.23-9.49h1.48l3.24,9.49h-1.31l-1-3Zm3.11-.95-.93-2.74c-.21-.62-.35-1.18-.49-1.73h0c-.14.56-.3,1.14-.48,1.72l-.93,2.75Z"/><path class="cls-2" d="M109.6,46.87a6.25,6.25,0,0,1-2.51.45,4.43,4.43,0,0,1-4.69-4.8,4.73,4.73,0,0,1,5-5,5,5,0,0,1,2.25.43l-.3,1a4.34,4.34,0,0,0-1.91-.4c-2.23,0-3.71,1.42-3.71,3.92,0,2.32,1.34,3.81,3.65,3.81a4.88,4.88,0,0,0,2-.39Z"/><path class="cls-2" d="M113.33,38.73h-2.88v-1h7v1h-2.9v8.45h-1.24Z"/><path class="cls-2" d="M121.52,37.81a18,18,0,0,1,2.61-.19A5.44,5.44,0,0,1,128,38.8a4.35,4.35,0,0,1,1.34,3.41,5,5,0,0,1-1.37,3.69,5.83,5.83,0,0,1-4.19,1.36,20,20,0,0,1-2.23-.11Zm1.23,8.4a8.42,8.42,0,0,0,1.23.07c2.62,0,4-1.47,4-4,0-2.24-1.26-3.66-3.85-3.66a7,7,0,0,0-1.43.12Z"/><path class="cls-2" d="M135.82,42.73h-3.69v3.42h4.11v1H130.9V37.69H136v1h-3.9v3h3.69Z"/><path class="cls-2" d="M140.05,47.18,137,37.69h1.32l1.48,4.67c.41,1.28.76,2.44,1,3.55h0c.27-1.1.67-2.29,1.09-3.53l1.6-4.69h1.31l-3.39,9.49Z"/><path class="cls-2" d="M150.74,42.73h-3.69v3.42h4.11v1h-5.33V37.69H151v1h-3.9v3h3.69Z"/><path class="cls-2" d="M152.76,37.69H154v8.46H158v1h-5.28Z"/><path class="cls-2" d="M167,42.33c0,3.27-2,5-4.41,5s-4.26-1.94-4.26-4.81c0-3,1.87-5,4.41-5S167,39.52,167,42.33Zm-7.36.16c0,2,1.1,3.84,3,3.84s3.05-1.78,3.05-3.94c0-1.89-1-3.86-3-3.86S159.61,40.41,159.61,42.49Z"/><path class="cls-2" d="M168.57,37.8a14,14,0,0,1,2.35-.18,3.88,3.88,0,0,1,2.66.79,2.55,2.55,0,0,1,.83,2,2.79,2.79,0,0,1-.73,2,3.93,3.93,0,0,1-2.9,1,4.32,4.32,0,0,1-1-.08v3.8h-1.22Zm1.22,4.58a4.18,4.18,0,0,0,1,.1c1.48,0,2.38-.72,2.38-2s-.89-1.86-2.24-1.86a4.92,4.92,0,0,0-1.16.1Z"/><path class="cls-2" d="M181,42.73h-3.69v3.42h4.11v1h-5.33V37.69h5.12v1h-3.9v3H181Z"/><path class="cls-2" d="M183,37.81a13.37,13.37,0,0,1,2.35-.19,3.93,3.93,0,0,1,2.75.77,2.35,2.35,0,0,1,.74,1.8,2.5,2.5,0,0,1-1.79,2.43v0a2.36,2.36,0,0,1,1.4,1.91,15,15,0,0,0,.73,2.61h-1.27a13,13,0,0,1-.63-2.27c-.28-1.31-.79-1.8-1.9-1.84h-1.16v4.11H183Zm1.22,4.33h1.26c1.31,0,2.14-.72,2.14-1.81s-.89-1.76-2.19-1.77a5.48,5.48,0,0,0-1.21.11Z"/><path class="cls-2" d="M67.19,34c0-4.4-5.52-8.58-14-11.17,1.95-8.63,1.08-15.49-2.74-17.69a6,6,0,0,0-3-.76v3A3.15,3.15,0,0,1,49,7.74C50.82,8.8,51.62,12.82,51,18c-.15,1.27-.39,2.61-.69,4a65,65,0,0,0-8.62-1.47,67.05,67.05,0,0,0-5.64-6.79c4.42-4.11,8.57-6.36,11.4-6.36v-3h0c-3.73,0-8.62,2.66-13.55,7.27C29,7,24.08,4.4,20.34,4.4v3c2.81,0,7,2.23,11.4,6.32a63,63,0,0,0-5.6,6.77A61.68,61.68,0,0,0,17.51,22c-.31-1.36-.54-2.67-.71-3.94-.63-5.18.15-9.21,2-10.28a3,3,0,0,1,1.55-.35v-3h0a6.09,6.09,0,0,0-3.06.75c-3.81,2.2-4.67,9.05-2.7,17.65C6.14,25.43.65,29.59.65,34s5.52,8.59,14,11.18c-2,8.63-1.08,15.49,2.74,17.69a6.07,6.07,0,0,0,3.06.76C24.16,63.61,29,61,34,56.34c4.93,4.58,9.82,7.21,13.55,7.21a6,6,0,0,0,3.06-.76c3.81-2.19,4.67-9,2.7-17.64C61.7,42.56,67.19,38.38,67.19,34Zm-17.66-9c-.5,1.75-1.12,3.55-1.83,5.35-.55-1.08-1.14-2.17-1.77-3.25s-1.29-2.14-2-3.17C45.9,24.15,47.76,24.5,49.53,24.94ZM43.32,39.38c-1.06,1.83-2.14,3.57-3.27,5.18-2,.18-4.07.28-6.13.28s-4.09-.1-6.1-.26c-1.13-1.62-2.23-3.34-3.28-5.16s-2-3.58-2.83-5.4c.85-1.81,1.8-3.63,2.81-5.41s2.15-3.56,3.27-5.18c2-.17,4.07-.27,6.13-.27s4.1.1,6.11.26c1.12,1.61,2.22,3.33,3.28,5.15s2,3.58,2.82,5.4C45.28,35.79,44.34,37.61,43.32,39.38Zm4.38-1.76A54.19,54.19,0,0,1,49.57,43c-1.77.43-3.64.8-5.58,1.08.66-1,1.33-2.11,1.95-3.21S47.15,38.7,47.7,37.62ZM34,52.09a55.71,55.71,0,0,1-3.77-4.34c1.22.06,2.47.1,3.73.1s2.54,0,3.77-.1A51.55,51.55,0,0,1,34,52.09Zm-10.09-8c-1.93-.28-3.79-.63-5.56-1.07.5-1.75,1.12-3.55,1.83-5.36.55,1.09,1.14,2.17,1.77,3.26S23.19,43.07,23.86,44.1Zm10-28.22a55.71,55.71,0,0,1,3.77,4.34c-1.22-.06-2.47-.1-3.73-.1s-2.53,0-3.77.1A51.55,51.55,0,0,1,33.88,15.88Zm-10,8c-.66,1-1.32,2.11-1.95,3.21s-1.21,2.17-1.76,3.26c-.73-1.82-1.36-3.64-1.87-5.4C20,24.52,21.9,24.15,23.84,23.87Zm-12.27,17C6.77,38.8,3.66,36.11,3.66,34s3.11-4.82,7.91-6.86c1.17-.5,2.44-.95,3.76-1.37a64.51,64.51,0,0,0,3,8.26,64.16,64.16,0,0,0-3,8.22C14,41.81,12.75,41.35,11.57,40.85Zm7.3,19.38c-1.85-1.06-2.65-5.09-2-10.27a38.87,38.87,0,0,1,.69-4,63.44,63.44,0,0,0,8.61,1.48,65.81,65.81,0,0,0,5.64,6.78c-4.42,4.11-8.57,6.37-11.39,6.37A3.29,3.29,0,0,1,18.87,60.23ZM51,49.89c.64,5.19-.15,9.21-2,10.29a3.08,3.08,0,0,1-1.56.35c-2.81,0-7-2.24-11.39-6.32a66.55,66.55,0,0,0,5.6-6.77A64.59,64.59,0,0,0,50.33,46,36.15,36.15,0,0,1,51,49.89Zm5.22-9c-1.16.5-2.44.95-3.76,1.37a64.51,64.51,0,0,0-3-8.26,64.16,64.16,0,0,0,3-8.22c1.35.42,2.62.88,3.82,1.38,4.8,2.05,7.9,4.73,7.9,6.86S61.06,38.81,56.26,40.85Z"/><circle class="cls-2" cx="33.91" cy="33.98" r="6.2"/></svg>