<svg id="Layer_1" data-name="Layer 1" xmlns="http://www.w3.org/2000/svg" viewBox="0 0 206.8 67.5"><defs><style>.cls-1{fill:#404040;}.cls-2,.cls-3{fill:#917cdf;}.cls-3{fill-rule:evenodd;}</style></defs><title>unr-logo</title><path class="cls-1" d="M79,24.06h3.63v.73H79.83V27h2.55v.72H79.83V30.8H79Z"/><path class="cls-1" d="M83.93,24.06h.87v6h2.88v.73H83.93Z"/><path class="cls-1" d="M92.24,27.64H89.62v2.43h2.92v.73H88.75V24.06h3.64v.73H89.62v2.13h2.62Z"/><path class="cls-1" d="M97.46,30.8l-.86-1.49c-.35-.57-.57-.94-.78-1.33h0c-.19.39-.38.75-.73,1.34l-.81,1.48h-1l2.06-3.41-2-3.33h1l.89,1.58c.25.44.44.78.62,1.14h0c.19-.4.36-.71.61-1.14l.92-1.58h1l-2,3.28,2.1,3.46Z"/><path class="cls-1" d="M99.58,24.15a8.43,8.43,0,0,1,1.59-.14,2.79,2.79,0,0,1,1.85.49,1.41,1.41,0,0,1,.56,1.19,1.6,1.6,0,0,1-1.14,1.48v0a1.74,1.74,0,0,1,1.39,1.69,1.82,1.82,0,0,1-.57,1.35,3.39,3.39,0,0,1-2.33.63,10.17,10.17,0,0,1-1.35-.08Zm.87,2.76h.79c.92,0,1.46-.48,1.46-1.13s-.6-1.1-1.48-1.1a3.73,3.73,0,0,0-.77.06Zm0,3.23a4.65,4.65,0,0,0,.73,0c.9,0,1.73-.33,1.73-1.31s-.79-1.3-1.74-1.3h-.72Z"/><path class="cls-1" d="M110.86,27.36c0,2.32-1.41,3.55-3.13,3.55s-3-1.38-3-3.42S106,24,107.83,24,110.86,25.36,110.86,27.36Zm-5.23.11c0,1.44.78,2.73,2.15,2.73s2.16-1.27,2.16-2.8c0-1.34-.7-2.74-2.15-2.74S105.63,26,105.63,27.47Z"/><path class="cls-1" d="M115.51,30.8l-.86-1.49c-.35-.57-.57-.94-.78-1.33h0c-.19.39-.38.75-.73,1.34l-.81,1.48h-1l2.06-3.41-2-3.33h1l.89,1.58c.25.44.44.78.62,1.14h0c.19-.4.36-.71.61-1.14l.92-1.58h1l-2,3.28,2.1,3.46Z"/><path class="cls-1" d="M123.34,27.64h-2.62v2.43h2.92v.73h-3.79V24.06h3.64v.73h-2.77v2.13h2.62Z"/><path class="cls-1" d="M128.56,30.8l-.86-1.49c-.35-.57-.57-.94-.78-1.33h0c-.19.39-.38.75-.73,1.34l-.81,1.48h-1l2.06-3.41-2-3.33h1l.89,1.58c.25.44.44.78.62,1.14h0c.19-.4.36-.71.61-1.14l.92-1.58h1l-2.05,3.28,2.1,3.46Z"/><path class="cls-1" d="M130.68,24.14a10.08,10.08,0,0,1,1.67-.13,2.77,2.77,0,0,1,1.89.56,1.81,1.81,0,0,1,.59,1.41,2,2,0,0,1-.52,1.44,2.79,2.79,0,0,1-2.06.74,3,3,0,0,1-.7-.06v2.7h-.87Zm.87,3.25a2.92,2.92,0,0,0,.72.07c1,0,1.69-.51,1.69-1.44s-.63-1.32-1.59-1.32a3.65,3.65,0,0,0-.82.07Z"/><path class="cls-1" d="M139.59,27.64H137v2.43h2.92v.73H136.1V24.06h3.64v.73H137v2.13h2.62Z"/><path class="cls-1" d="M141.12,24.15a9.06,9.06,0,0,1,1.67-.14,2.76,2.76,0,0,1,2,.55,1.68,1.68,0,0,1,.53,1.28A1.77,1.77,0,0,1,144,27.56v0A1.68,1.68,0,0,1,145,29a10.73,10.73,0,0,0,.52,1.85h-.9a8.73,8.73,0,0,1-.45-1.61c-.2-.93-.56-1.28-1.35-1.31H142V30.8h-.87Zm.87,3.07h.89c.93,0,1.52-.51,1.52-1.28s-.63-1.25-1.55-1.26a3.58,3.58,0,0,0-.86.08Z"/><path class="cls-1" d="M148,24.8h-2.05v-.74h5v.74h-2.06v6H148Z"/><path class="cls-1" d="M158.69,30.58a4.32,4.32,0,0,1-1.78.32,3.15,3.15,0,0,1-3.33-3.41A3.35,3.35,0,0,1,157.1,24a3.61,3.61,0,0,1,1.6.3l-.21.71a3.17,3.17,0,0,0-1.36-.28,2.51,2.51,0,0,0-2.63,2.78,2.45,2.45,0,0,0,2.59,2.71,3.48,3.48,0,0,0,1.42-.28Z"/><path class="cls-1" d="M163.37,27.64h-2.62v2.43h2.92v.73h-3.79V24.06h3.64v.73h-2.77v2.13h2.62Z"/><path class="cls-1" d="M164.9,24.15a9.06,9.06,0,0,1,1.67-.14,2.76,2.76,0,0,1,2,.55,1.68,1.68,0,0,1,.53,1.28,1.77,1.77,0,0,1-1.27,1.72v0a1.68,1.68,0,0,1,1,1.36,10.73,10.73,0,0,0,.52,1.85h-.9a8.73,8.73,0,0,1-.45-1.61c-.2-.93-.56-1.28-1.35-1.31h-.82V30.8h-.87Zm.87,3.07h.89c.93,0,1.52-.51,1.52-1.28s-.63-1.25-1.55-1.26a3.58,3.58,0,0,0-.86.08Z"/><path class="cls-1" d="M171.75,24.8H169.7v-.74h5v.74h-2.06v6h-.88Z"/><path class="cls-1" d="M176.41,24.06V30.8h-.87V24.06Z"/><path class="cls-1" d="M178,24.06h3.63v.73H178.9V27h2.55v.72H178.9V30.8H178Z"/><path class="cls-1" d="M183.87,24.06V30.8H183V24.06Z"/><path class="cls-1" d="M189,27.64h-2.62v2.43h2.92v.73h-3.79V24.06h3.64v.73h-2.77v2.13H189Z"/><path class="cls-1" d="M190.51,24.15a12.46,12.46,0,0,1,1.85-.14,3.86,3.86,0,0,1,2.73.84,3.1,3.1,0,0,1,.95,2.42,3.56,3.56,0,0,1-1,2.62,4.15,4.15,0,0,1-3,1,14,14,0,0,1-1.58-.08Zm.87,6a5.49,5.49,0,0,0,.88.05,2.59,2.59,0,0,0,2.87-2.86,2.4,2.4,0,0,0-2.73-2.6,4.94,4.94,0,0,0-1,.09Z"/><path class="cls-2" d="M81.26,37.69v5.62c0,2.12.95,3,2.21,3s2.31-.92,2.31-3V37.69H87v5.53c0,2.92-1.53,4.11-3.59,4.11S80,46.22,80,43.28V37.69Z"/><path class="cls-2" d="M89.15,47.18V37.69h1.34l3,4.8a25.92,25.92,0,0,1,1.71,3.08h0c-.12-1.27-.14-2.42-.14-3.9v-4h1.15v9.49H95l-3-4.82a28.28,28.28,0,0,1-1.78-3.17l0,0c.07,1.2.1,2.34.1,3.91v4.06Z"/><path class="cls-2" d="M98.43,37.81a13.29,13.29,0,0,1,2.35-.19,3.89,3.89,0,0,1,2.74.77,2.36,2.36,0,0,1,.75,1.8,2.5,2.5,0,0,1-1.79,2.43v0a2.38,2.38,0,0,1,1.4,1.91,15,15,0,0,0,.73,2.61h-1.27a12.12,12.12,0,0,1-.63-2.27c-.28-1.31-.79-1.8-1.9-1.84H99.65v4.11H98.43Zm1.22,4.33h1.25c1.31,0,2.14-.72,2.14-1.81s-.88-1.76-2.18-1.77a5.48,5.48,0,0,0-1.21.11Z"/><path class="cls-2" d="M107.61,44.19l-1,3h-1.27l3.22-9.49h1.48l3.24,9.49H112l-1-3Zm3.11-.95-.93-2.74c-.21-.62-.35-1.18-.49-1.73h0c-.14.56-.29,1.14-.48,1.72l-.92,2.75Z"/><path class="cls-2" d="M116,47.18l-3.1-9.49h1.32l1.48,4.67c.41,1.28.76,2.44,1,3.55h0c.27-1.1.67-2.29,1.09-3.53l1.6-4.69h1.31l-3.39,9.49Z"/><path class="cls-2" d="M126.73,42.73H123v3.42h4.11v1h-5.33V37.69h5.12v1H123v3h3.69Z"/><path class="cls-2" d="M128.75,37.69H130v8.46H134v1h-5.28Z"/><path class="cls-2" d="M136.63,37.69v9.49H135.4V37.69Z"/><path class="cls-2" d="M138.77,47.18V37.69h1.33l3.05,4.8a27.24,27.24,0,0,1,1.7,3.08h0c-.11-1.27-.14-2.42-.14-3.9v-4h1.15v9.49h-1.24l-3-4.82a28.16,28.16,0,0,1-1.77-3.17l-.05,0c.07,1.2.1,2.34.1,3.91v4.06Z"/><path class="cls-2" d="M155.26,46.76a9,9,0,0,1-2.91.52,4.48,4.48,0,0,1-4.88-4.79,4.77,4.77,0,0,1,5.15-4.9A5.81,5.81,0,0,1,155,38l-.29,1a4.89,4.89,0,0,0-2.1-.41,3.55,3.55,0,0,0-3.82,3.81,3.48,3.48,0,0,0,3.66,3.83,4.07,4.07,0,0,0,1.64-.25V43.18h-1.93v-1h3.12Z"/><g id="Page-1"><path id="Oval-1" class="cls-3" d="M33.92,67A33.27,33.27,0,1,0,.64,33.7,33.27,33.27,0,0,0,33.92,67ZM14.51,53.11H53.32V14.29H14.51Zm34.66-27H41.54V18.45h7.62v7.62ZM37.38,31.62H30.45V18.45h6.93V31.62ZM18.67,37.17V30.23h7.62v6.94Zm18.71-1.39V49H30.45V35.78Zm4.16-5.55h7.63v6.94H41.54V30.23ZM26.29,18.45v7.62H18.67V18.45ZM18.67,41.32h7.62V49H18.67V41.32ZM41.54,49V41.32h7.63V49Z"/></g></svg>